<svg width="16" height="16" viewBox="0 0 16 16" fill="none" xmlns="http://www.w3.org/2000/svg">
<path d="M15.9843 4.70404C15.9468 3.8539 15.8094 3.26944 15.6124 2.76299C15.4092 2.22541 15.0967 1.74412 14.6872 1.34401C14.2871 0.937683 13.8026 0.621948 13.2713 0.421957C12.7619 0.22502 12.1805 0.0875415 11.3303 0.0500586C10.4738 0.00940124 10.2019 0 8.02964 0C5.85734 0 5.58543 0.00940124 4.73212 0.0468842C3.88198 0.0843671 3.29751 0.221967 2.79119 0.418783C2.25349 0.621948 1.77219 0.934509 1.37209 1.34401C0.965759 1.74412 0.650146 2.22858 0.450033 2.75994C0.253096 3.26944 0.115618 3.85073 0.0781347 4.70087C0.0374774 5.55736 0.0280762 5.82926 0.0280762 8.00156C0.0280762 10.1739 0.0374774 10.4458 0.0749603 11.2991C0.112443 12.1492 0.250043 12.7337 0.446981 13.2401C0.650146 13.7777 0.965759 14.259 1.37209 14.6591C1.77219 15.0654 2.25666 15.3812 2.78801 15.5812C3.29751 15.7781 3.8788 15.9156 4.72907 15.9531C5.58226 15.9907 5.85429 16 8.02658 16C10.1989 16 10.4708 15.9907 11.3241 15.9531C12.1742 15.9156 12.7587 15.7781 13.265 15.5812C14.3403 15.1654 15.1905 14.3153 15.6062 13.2401C15.803 12.7306 15.9406 12.1492 15.9781 11.2991C16.0156 10.4458 16.025 10.1739 16.025 8.00156C16.025 5.82926 16.0218 5.55736 15.9843 4.70404ZM14.5435 11.2366C14.509 12.018 14.3778 12.4399 14.2684 12.7212C13.9996 13.4183 13.4463 13.9715 12.7493 14.2403C12.468 14.3497 12.043 14.481 11.2646 14.5153C10.4207 14.5529 10.1676 14.5622 8.03281 14.5622C5.89799 14.5622 5.64172 14.5529 4.80086 14.5153C4.01945 14.481 3.5975 14.3497 3.31619 14.2403C2.96932 14.1121 2.65359 13.909 2.39731 13.6433C2.13164 13.3838 1.92847 13.0713 1.80027 12.7244C1.69088 12.4431 1.55962 12.018 1.52532 11.2397C1.48771 10.3958 1.47843 10.1426 1.47843 8.00779C1.47843 5.87297 1.48771 5.6167 1.52532 4.77596C1.55962 3.99455 1.69088 3.5726 1.80027 3.29129C1.92847 2.9443 2.13164 2.62869 2.40049 2.37229C2.65981 2.10661 2.97238 1.90345 3.31937 1.77537C3.60067 1.66597 4.0258 1.53472 4.80403 1.50029C5.64795 1.46281 5.90117 1.45341 8.03586 1.45341C10.1739 1.45341 10.427 1.46281 11.2678 1.50029C12.0492 1.53472 12.4712 1.66597 12.7525 1.77537C13.0994 1.90345 13.4151 2.10661 13.6714 2.37229C13.937 2.63174 14.1402 2.9443 14.2684 3.29129C14.3778 3.5726 14.509 3.99761 14.5435 4.77596C14.581 5.61987 14.5904 5.87297 14.5904 8.00779C14.5904 10.1426 14.581 10.3927 14.5435 11.2366Z" fill="white"/>
<path d="M8.02961 3.89148C5.76049 3.89148 3.91943 5.73242 3.91943 8.00166C3.91943 10.2709 5.76049 12.1118 8.02961 12.1118C10.2988 12.1118 12.1398 10.2709 12.1398 8.00166C12.1398 5.73242 10.2988 3.89148 8.02961 3.89148ZM8.02961 10.6678C6.55752 10.6678 5.36344 9.47387 5.36344 8.00166C5.36344 6.52945 6.55752 5.33549 8.02961 5.33549C9.50182 5.33549 10.6958 6.52945 10.6958 8.00166C10.6958 9.47387 9.50182 10.6678 8.02961 10.6678Z" fill="white"/>
<path d="M13.262 3.72883C13.262 4.25872 12.8323 4.68836 12.3023 4.68836C11.7724 4.68836 11.3428 4.25872 11.3428 3.72883C11.3428 3.19881 11.7724 2.76929 12.3023 2.76929C12.8323 2.76929 13.262 3.19881 13.262 3.72883Z" fill="white"/>
</svg>
